<svg width="45" height="44" viewBox="0 0 45 44" fill="none" xmlns="http://www.w3.org/2000/svg">
<rect x="5.49988" y="4.99991" width="34" height="34" rx="6" fill="#ACF2E7"/>
<path d="M16.25 30.3333C18.0208 31.6458 20.1771 32.4166 22.5 32.4166C24.8229 32.4166 26.9792 31.6458 28.75 30.3333" stroke="#24A793" stroke-width="2" stroke-linecap="round"/>
<path d="M30.3333 18.875C30.3333 19.653 30.1222 20.3347 29.8071 20.8074C29.4897 21.2835 29.1061 21.5 28.75 21.5C28.3939 21.5 28.0103 21.2835 27.6928 20.8074C27.3778 20.3347 27.1666 19.653 27.1666 18.875C27.1666 18.097 27.3778 17.4153 27.6928 16.9426C28.0103 16.4665 28.3939 16.25 28.75 16.25C29.1061 16.25 29.4897 16.4665 29.8071 16.9426C30.1222 17.4153 30.3333 18.097 30.3333 18.875Z" fill="#24A793" stroke="#24A793"/>
<path d="M17.8333 18.875C17.8333 19.653 17.6222 20.3347 17.3071 20.8074C16.9897 21.2835 16.6061 21.5 16.25 21.5C15.8939 21.5 15.5103 21.2835 15.1928 20.8074C14.8778 20.3347 14.6666 19.653 14.6666 18.875C14.6666 18.097 14.8778 17.4153 15.1928 16.9426C15.5103 16.4665 15.8939 16.25 16.25 16.25C16.6061 16.25 16.9897 16.4665 17.3071 16.9426C17.6222 17.4153 17.8333 18.097 17.8333 18.875Z" fill="#24A793" stroke="#24A793"/>
<path d="M43.1665 25.9999C43.1665 33.8562 43.1665 37.7853 40.7249 40.2249C38.2853 42.6666 34.3561 42.6666 26.4999 42.6666M18.1665 42.6666C10.3103 42.6666 6.38113 42.6666 3.94154 40.2249C1.49988 37.7853 1.49988 33.8562 1.49988 25.9999M18.1665 0.999908C10.3103 0.999908 6.38113 0.999908 3.94154 3.44158C1.49988 5.88116 1.49988 9.81033 1.49988 17.6666M26.4999 0.999908C34.3561 0.999908 38.2853 0.999908 40.7249 3.44158C43.1665 5.88116 43.1665 9.81033 43.1665 17.6666" stroke="#0A2D27" stroke-width="2" stroke-linecap="round"/>
</svg>
