<svg width="1143" height="200" viewBox="0 0 1143 200" fill="none" xmlns="http://www.w3.org/2000/svg">
<g clip-path="url(#clip0_877_3243)">
<path d="M0 5.99999C0 2.68629 2.68629 0 6 0H1137C1140.31 0 1143 2.68629 1143 6V200H0V5.99999Z" fill="#0A2D27"/>
<rect width="400" height="200" transform="translate(743)" fill="#0A2D27"/>
<rect x="743" width="100" height="100" fill="#0A2D27"/>
<rect x="843" y="50" width="100" height="50" transform="rotate(180 843 50)" fill="#0A2D27"/>
<path d="M793 100C765.386 100 743 77.6142 743 50L843 50C843 77.6142 820.614 100 793 100Z" fill="#0A2D27"/>
<rect width="100" height="100" transform="matrix(-1 0 0 1 943 0)" fill="#0A2D27"/>
<rect width="100" height="50" transform="matrix(-1 0 0 1 943 0)" fill="#0A2D27"/>
<path d="M893 100C865.386 100 843 77.6142 843 50L943 50C943 77.6142 920.614 100 893 100Z" fill="#0A2D27"/>
<rect x="1043" y="100" width="100" height="100" transform="rotate(180 1043 100)" fill="#0A2D27"/>
<path d="M993 50C965.386 50 943 72.3858 943 100H1043C1043 72.3858 1020.61 50 993 50Z" fill="#24A793"/>
<rect width="100" height="100" transform="matrix(-1 0 0 1 1143 0)" fill="#24A793"/>
<rect x="743" y="100" width="100" height="100" fill="#0A2D27"/>
<rect width="100" height="100" transform="matrix(-1 0 0 1 943 100)" fill="#0A2D27"/>
<path d="M843 200C843 186.868 845.587 173.864 850.612 161.732C855.637 149.599 863.003 138.575 872.289 129.289C881.575 120.003 892.599 112.638 904.732 107.612C916.864 102.587 929.868 100 943 100L943 200H843Z" fill="#24A793"/>
<rect x="1043" y="200" width="100" height="100" transform="rotate(180 1043 200)" fill="#24A793"/>
<path d="M1043 200C1043 186.868 1040.41 173.864 1035.39 161.732C1030.36 149.599 1023 138.575 1013.71 129.289C1004.42 120.003 993.401 112.638 981.268 107.612C969.136 102.587 956.132 100 943 100L943 200H1043Z" fill="#ACF2E7"/>
<rect width="100" height="100" transform="matrix(-1 0 0 1 1143 100)" fill="#ACF2E7"/>
<path d="M1093 150C1065.39 150 1043 127.614 1043 100H1143C1143 127.614 1120.61 150 1093 150Z" fill="#24A793"/>
<rect width="100" height="100" transform="matrix(1 0 0 -1 200 200)" fill="#24A793"/>
<rect width="100" height="100" transform="matrix(-1 0 0 1 200 100)" fill="#ACF2E7"/>
<rect x="100" y="200" width="100" height="100" transform="rotate(180 100 200)" fill="#24A793"/>
<path d="M100 200C100 186.868 97.4134 173.864 92.388 161.732C87.3625 149.599 79.9965 138.575 70.7107 129.289C61.4248 120.003 50.4009 112.638 38.2683 107.612C26.1358 102.587 13.1322 100 0 100L7.62939e-06 200H100Z" fill="#ACF2E7"/>
<rect width="100" height="100" transform="matrix(1 0 0 -1 200 100)" fill="#0A2D27"/>
<path d="M300 100C300 86.8678 297.413 73.8642 292.388 61.7317C287.362 49.5991 279.997 38.5752 270.711 29.2893C261.425 20.0035 250.401 12.6375 238.268 7.61205C226.136 2.58658 213.132 -5.74026e-07 200 0L200 100H300Z" fill="#24A793"/>
<rect width="100" height="100" transform="matrix(-1 0 0 1 200 0)" fill="#24A793"/>
<path d="M100 100C100 86.8678 102.587 73.8642 107.612 61.7317C112.638 49.5991 120.003 38.5752 129.289 29.2893C138.575 20.0035 149.599 12.6375 161.732 7.61205C173.864 2.58658 186.868 -5.74026e-07 200 0L200 100H100Z" fill="#ACF2E7"/>
<rect x="100" y="100" width="100" height="100" transform="rotate(180 100 100)" fill="#24A793"/>
<rect x="100" y="50" width="100" height="50" transform="rotate(180 100 50)" fill="#0A2D27"/>
<path d="M50 100C22.3858 100 0 77.6142 0 50L100 50C100 77.6142 77.6142 100 50 100Z" fill="#0A2D27"/>
</g>
<defs>
<clipPath id="clip0_877_3243">
<path d="M0 5.99999C0 2.68629 2.68629 0 6 0H1137C1140.31 0 1143 2.68629 1143 6V200H0V5.99999Z" fill="white"/>
</clipPath>
</defs>
</svg>
