<svg width="42" height="42" viewBox="0 0 42 42" fill="none" xmlns="http://www.w3.org/2000/svg">
<path d="M21 17.5C24.866 17.5 28 14.366 28 10.5C28 6.63401 24.866 3.5 21 3.5C17.134 3.5 14 6.63401 14 10.5C14 14.366 17.134 17.5 21 17.5Z" fill="#0A2D27"/>
<path fill-rule="evenodd" clip-rule="evenodd" d="M28.875 38.5C25.9875 38.5 24.5437 38.5 23.6477 37.6022C22.75 36.7062 22.75 35.2625 22.75 32.375C22.75 29.4875 22.75 28.0437 23.6477 27.1477C24.5437 26.25 25.9875 26.25 28.875 26.25C31.7625 26.25 33.2062 26.25 34.1022 27.1477C35 28.0437 35 29.4875 35 32.375C35 35.2625 35 36.7062 34.1022 37.6022C33.2062 38.5 31.7625 38.5 28.875 38.5ZM32.319 31.0555C32.5105 30.864 32.618 30.6044 32.618 30.3336C32.618 30.0629 32.5105 29.8032 32.319 29.6117C32.1275 29.4203 31.8679 29.3127 31.5971 29.3127C31.3264 29.3127 31.0667 29.4203 30.8752 29.6117L27.5152 32.9717L26.8748 32.333C26.78 32.2382 26.6674 32.163 26.5436 32.1117C26.4197 32.0604 26.2869 32.034 26.1529 32.034C26.0188 32.034 25.8861 32.0604 25.7622 32.1117C25.6383 32.163 25.5258 32.2382 25.431 32.333C25.3362 32.4278 25.261 32.5403 25.2097 32.6642C25.1584 32.7881 25.132 32.9208 25.132 33.0549C25.132 33.1889 25.1584 33.3217 25.2097 33.4456C25.261 33.5694 25.3362 33.682 25.431 33.7768L26.7925 35.1383C26.8873 35.2331 26.9998 35.3084 27.1236 35.3597C27.2475 35.4111 27.3803 35.4375 27.5144 35.4375C27.6485 35.4375 27.7812 35.4111 27.9051 35.3597C28.029 35.3084 28.1415 35.2331 28.2363 35.1383L32.319 31.0555Z" fill="#0A2D27"/>
<path d="M31.6662 26.3043C30.9225 26.25 30.0107 26.25 28.875 26.25C25.9875 26.25 24.5437 26.25 23.6477 27.1477C22.75 28.0437 22.75 29.4875 22.75 32.375C22.75 34.4155 22.75 35.735 23.0667 36.6503C22.3947 36.7168 21.7052 36.75 21 36.75C14.2345 36.75 8.75 33.6175 8.75 29.75C8.75 25.8825 14.2345 22.75 21 22.75C25.5728 22.75 29.561 24.1815 31.6662 26.3043Z" fill="#24A793"/>
</svg>
